<mxfile host="app.diagrams.net" agent="Mozilla/5.0 (Macintosh; Intel Mac OS X 10_15_7) AppleWebKit/537.36 (KHTML, like Gecko) Chrome/129.0.0.0 Safari/537.36" version="24.7.17">
  <diagram name="Page-1" id="0XEtQp7KPzVtx-7-DPpG">
    <mxGraphModel dx="4007" dy="3219" grid="1" gridSize="10" guides="1" tooltips="1" connect="1" arrows="1" fold="1" page="1" pageScale="1" pageWidth="827" pageHeight="1169" math="0" shadow="0">
      <root>
        <mxCell id="0" />
        <mxCell id="1" parent="0" />
        <mxCell id="J4mo5HQQrRGgRoSCuhJP-2" value="Token and NFT Fetching" style="rounded=0;whiteSpace=wrap;html=1;" vertex="1" parent="1">
          <mxGeometry x="-180" y="-230" width="1140" height="1470" as="geometry" />
        </mxCell>
        <mxCell id="J4mo5HQQrRGgRoSCuhJP-3" value="" style="rounded=0;whiteSpace=wrap;html=1;" vertex="1" parent="1">
          <mxGeometry x="100" y="580" width="710" height="420" as="geometry" />
        </mxCell>
        <mxCell id="J4mo5HQQrRGgRoSCuhJP-4" value="" style="rounded=0;whiteSpace=wrap;html=1;" vertex="1" parent="1">
          <mxGeometry x="100" y="30" width="710" height="420" as="geometry" />
        </mxCell>
        <mxCell id="J4mo5HQQrRGgRoSCuhJP-5" value="" style="edgeStyle=orthogonalEdgeStyle;rounded=0;orthogonalLoop=1;jettySize=auto;html=1;" edge="1" parent="1" source="J4mo5HQQrRGgRoSCuhJP-6" target="J4mo5HQQrRGgRoSCuhJP-9">
          <mxGeometry relative="1" as="geometry" />
        </mxCell>
        <mxCell id="J4mo5HQQrRGgRoSCuhJP-6" value="filter out owner tokens with only nfts&amp;nbsp;" style="rounded=0;whiteSpace=wrap;html=1;" vertex="1" parent="1">
          <mxGeometry x="130" y="190" width="120" height="60" as="geometry" />
        </mxCell>
        <mxCell id="J4mo5HQQrRGgRoSCuhJP-7" value="" style="edgeStyle=orthogonalEdgeStyle;rounded=0;orthogonalLoop=1;jettySize=auto;html=1;" edge="1" parent="1" source="J4mo5HQQrRGgRoSCuhJP-9" target="J4mo5HQQrRGgRoSCuhJP-10">
          <mxGeometry relative="1" as="geometry" />
        </mxCell>
        <mxCell id="J4mo5HQQrRGgRoSCuhJP-8" style="edgeStyle=orthogonalEdgeStyle;rounded=0;orthogonalLoop=1;jettySize=auto;html=1;entryX=0.5;entryY=0;entryDx=0;entryDy=0;" edge="1" parent="1" source="J4mo5HQQrRGgRoSCuhJP-9" target="J4mo5HQQrRGgRoSCuhJP-11">
          <mxGeometry relative="1" as="geometry" />
        </mxCell>
        <mxCell id="J4mo5HQQrRGgRoSCuhJP-9" value="quicknode api" style="rounded=0;whiteSpace=wrap;html=1;" vertex="1" parent="1">
          <mxGeometry x="330" y="190" width="120" height="60" as="geometry" />
        </mxCell>
        <mxCell id="J4mo5HQQrRGgRoSCuhJP-10" value="filter out unverified and unknown nfts" style="rounded=0;whiteSpace=wrap;html=1;" vertex="1" parent="1">
          <mxGeometry x="520" y="110" width="120" height="60" as="geometry" />
        </mxCell>
        <mxCell id="J4mo5HQQrRGgRoSCuhJP-11" value="verified nfts" style="rounded=0;whiteSpace=wrap;html=1;" vertex="1" parent="1">
          <mxGeometry x="520" y="280" width="120" height="60" as="geometry" />
        </mxCell>
        <mxCell id="J4mo5HQQrRGgRoSCuhJP-12" value="MetaplexMap" style="text;html=1;align=center;verticalAlign=middle;whiteSpace=wrap;rounded=0;" vertex="1" parent="1">
          <mxGeometry x="120" y="90" width="60" height="30" as="geometry" />
        </mxCell>
        <mxCell id="J4mo5HQQrRGgRoSCuhJP-13" value="Token Info map" style="text;html=1;align=center;verticalAlign=middle;whiteSpace=wrap;rounded=0;" vertex="1" parent="1">
          <mxGeometry x="90" y="610" width="60" height="30" as="geometry" />
        </mxCell>
        <mxCell id="J4mo5HQQrRGgRoSCuhJP-14" value="npm&lt;br&gt;@solana/spl-token-registry" style="rounded=0;whiteSpace=wrap;html=1;" vertex="1" parent="1">
          <mxGeometry x="120" y="690" width="130" height="80" as="geometry" />
        </mxCell>
        <mxCell id="J4mo5HQQrRGgRoSCuhJP-15" value="token list from add token by user&amp;nbsp;" style="rounded=0;whiteSpace=wrap;html=1;" vertex="1" parent="1">
          <mxGeometry x="120" y="820" width="130" height="80" as="geometry" />
        </mxCell>
        <mxCell id="J4mo5HQQrRGgRoSCuhJP-16" style="edgeStyle=orthogonalEdgeStyle;rounded=0;orthogonalLoop=1;jettySize=auto;html=1;" edge="1" parent="1" source="J4mo5HQQrRGgRoSCuhJP-18" target="J4mo5HQQrRGgRoSCuhJP-19">
          <mxGeometry relative="1" as="geometry" />
        </mxCell>
        <mxCell id="J4mo5HQQrRGgRoSCuhJP-17" style="edgeStyle=orthogonalEdgeStyle;rounded=0;orthogonalLoop=1;jettySize=auto;html=1;entryX=0;entryY=0.25;entryDx=0;entryDy=0;" edge="1" parent="1" source="J4mo5HQQrRGgRoSCuhJP-18" target="J4mo5HQQrRGgRoSCuhJP-20">
          <mxGeometry relative="1" as="geometry" />
        </mxCell>
        <mxCell id="J4mo5HQQrRGgRoSCuhJP-18" value="" style="html=1;verticalLabelPosition=bottom;align=center;labelBackgroundColor=#ffffff;verticalAlign=top;strokeWidth=2;strokeColor=#0080F0;shadow=0;dashed=0;shape=mxgraph.ios7.icons.add;" vertex="1" parent="1">
          <mxGeometry x="170" y="780" width="30" height="30" as="geometry" />
        </mxCell>
        <mxCell id="J4mo5HQQrRGgRoSCuhJP-19" value="unknown token which are not found in list" style="rounded=0;whiteSpace=wrap;html=1;" vertex="1" parent="1">
          <mxGeometry x="380" y="700" width="130" height="80" as="geometry" />
        </mxCell>
        <mxCell id="J4mo5HQQrRGgRoSCuhJP-20" value="token which are found in spl and custom token list" style="rounded=0;whiteSpace=wrap;html=1;" vertex="1" parent="1">
          <mxGeometry x="380" y="820" width="130" height="80" as="geometry" />
        </mxCell>
        <mxCell id="J4mo5HQQrRGgRoSCuhJP-21" value="Text" style="text;html=1;align=center;verticalAlign=middle;whiteSpace=wrap;rounded=0;" vertex="1" parent="1">
          <mxGeometry x="480" y="350" width="60" height="30" as="geometry" />
        </mxCell>
        <mxCell id="J4mo5HQQrRGgRoSCuhJP-22" value="&lt;span style=&quot;font-size: 22px;&quot;&gt;Fetching Token and nft details&lt;/span&gt;" style="text;html=1;align=center;verticalAlign=middle;whiteSpace=wrap;rounded=0;" vertex="1" parent="1">
          <mxGeometry x="-160" y="-150" width="250" height="30" as="geometry" />
        </mxCell>
        <mxCell id="J4mo5HQQrRGgRoSCuhJP-23" style="edgeStyle=orthogonalEdgeStyle;rounded=0;orthogonalLoop=1;jettySize=auto;html=1;entryX=0;entryY=0.5;entryDx=0;entryDy=0;" edge="1" parent="1" source="J4mo5HQQrRGgRoSCuhJP-25" target="J4mo5HQQrRGgRoSCuhJP-4">
          <mxGeometry relative="1" as="geometry" />
        </mxCell>
        <mxCell id="J4mo5HQQrRGgRoSCuhJP-24" style="edgeStyle=orthogonalEdgeStyle;rounded=0;orthogonalLoop=1;jettySize=auto;html=1;entryX=0;entryY=0.5;entryDx=0;entryDy=0;" edge="1" parent="1" source="J4mo5HQQrRGgRoSCuhJP-25" target="J4mo5HQQrRGgRoSCuhJP-3">
          <mxGeometry relative="1" as="geometry" />
        </mxCell>
        <mxCell id="J4mo5HQQrRGgRoSCuhJP-25" value="getParsedToken&lt;div&gt;AccountsByOwner&lt;/div&gt;" style="rounded=0;whiteSpace=wrap;html=1;" vertex="1" parent="1">
          <mxGeometry x="-140" y="-40" width="120" height="60" as="geometry" />
        </mxCell>
      </root>
    </mxGraphModel>
  </diagram>
</mxfile>
